# xmcd CD database file
#
# Track frame offsets:
#	150
#	24750
#	56882
#	97200
#	126290
#	163597
#	193955
#	235807
#	248895
#	268630
#	289042
#	313255
#
# Disc length: 4407 seconds
#
# Revision: 0
# Processed by: cddbd v1.5.1PL0 Copyright (c) Steve Scherf et al.
# Submitted via: CDex 1.51
#
DISCID=b211350c
DTITLE=Dupree, Champion Jack - Live With Freeway 75
DYEAR=1900
DGENRE=Blues
TTITLE0=01 Bad Luck Man
TTITLE1=02 My Home in Louisiana
TTITLE2=03 It hurts me too
TTITLE3=04 Kansas City
TTITLE4=05 It hurts me two
TTITLE5=06 Shim Sham Shimmy
TTITLE6=07 Once a Friend wa gone
TTITLE7=08 Just a little Love
TTITLE8=09 Love me now
TTITLE9=10 Take my Guitar
TTITLE10=11 So far away
TTITLE11=12 Brand new Freeway
EXTD=
EXTT0=
EXTT1=
EXTT2=
EXTT3=
EXTT4=
EXTT5=
EXTT6=
EXTT7=
EXTT8=
EXTT9=
EXTT10=
EXTT11=
PLAYORDER=
